<svg width="157" height="41" viewBox="0 0 157 41" fill="none" xmlns="http://www.w3.org/2000/svg">
<path d="M23.8 31.6H10.472L8.568 40H0.84L10.192 0.799997H24.08L33.432 40H25.704L23.8 31.6ZM12.04 24.544H22.176L17.64 4.496H16.632L12.04 24.544ZM42.0371 40H34.9811V0.799997H42.0371V16.256H43.0451C43.7917 14.7253 44.8744 13.5493 46.2931 12.728C47.7117 11.8693 49.5224 11.44 51.7251 11.44C53.3677 11.44 54.9171 11.7573 56.3731 12.392C57.8664 13.0267 59.1544 13.96 60.2371 15.192C61.3571 16.3867 62.2344 17.8613 62.8691 19.616C63.5411 21.3707 63.8771 23.368 63.8771 25.608V26.616C63.8771 28.8933 63.5597 30.9093 62.9251 32.664C62.2904 34.4187 61.4317 35.912 60.3491 37.144C59.2664 38.3387 57.9784 39.2533 56.4851 39.888C55.0291 40.4853 53.4424 40.784 51.7251 40.784C50.4557 40.784 49.3544 40.6533 48.4211 40.392C47.4877 40.1307 46.6664 39.776 45.9571 39.328C45.2851 38.88 44.7064 38.376 44.2211 37.816C43.7731 37.2187 43.3811 36.6027 43.0451 35.968H42.0371V40ZM49.4291 34.064C51.6317 34.064 53.4051 33.392 54.7491 32.048C56.1304 30.6667 56.8211 28.8 56.8211 26.448V25.776C56.8211 23.424 56.1304 21.576 54.7491 20.232C53.4051 18.8507 51.6317 18.16 49.4291 18.16C47.2264 18.16 45.4344 18.8693 44.0531 20.288C42.7091 21.6693 42.0371 23.4987 42.0371 25.776V26.448C42.0371 28.7253 42.7091 30.5733 44.0531 31.992C45.4344 33.3733 47.2264 34.064 49.4291 34.064ZM95.1621 26.448C95.1621 28.7627 94.7701 30.816 93.9861 32.608C93.2021 34.3627 92.1381 35.856 90.7941 37.088C89.4501 38.2827 87.9008 39.1973 86.1461 39.832C84.4288 40.4667 82.6181 40.784 80.7141 40.784C78.8101 40.784 76.9808 40.4667 75.2261 39.832C73.5088 39.1973 71.9781 38.2827 70.6341 37.088C69.2901 35.856 68.2261 34.3627 67.4421 32.608C66.6581 30.816 66.2661 28.7627 66.2661 26.448V25.776C66.2661 23.4987 66.6581 21.4827 67.4421 19.728C68.2261 17.936 69.2901 16.424 70.6341 15.192C71.9781 13.96 73.5088 13.0267 75.2261 12.392C76.9808 11.7573 78.8101 11.44 80.7141 11.44C82.6181 11.44 84.4288 11.7573 86.1461 12.392C87.9008 13.0267 89.4501 13.96 90.7941 15.192C92.1381 16.424 93.2021 17.936 93.9861 19.728C94.7701 21.4827 95.1621 23.4987 95.1621 25.776V26.448ZM80.7141 34.064C81.7221 34.064 82.6741 33.896 83.5701 33.56C84.4661 33.224 85.2501 32.7387 85.9221 32.104C86.5941 31.4693 87.1168 30.704 87.4901 29.808C87.9008 28.8747 88.1061 27.8293 88.1061 26.672V25.552C88.1061 24.3947 87.9008 23.368 87.4901 22.472C87.1168 21.5387 86.5941 20.7547 85.9221 20.12C85.2501 19.4853 84.4661 19 83.5701 18.664C82.6741 18.328 81.7221 18.16 80.7141 18.16C79.7061 18.16 78.7541 18.328 77.8581 18.664C76.9621 19 76.1781 19.4853 75.5061 20.12C74.8341 20.7547 74.2928 21.5387 73.8821 22.472C73.5088 23.368 73.3221 24.3947 73.3221 25.552V26.672C73.3221 27.8293 73.5088 28.8747 73.8821 29.808C74.2928 30.704 74.8341 31.4693 75.5061 32.104C76.1781 32.7387 76.9621 33.224 77.8581 33.56C78.7541 33.896 79.7061 34.064 80.7141 34.064ZM118.551 12.224H125.607V40H118.551V35.968H117.543C116.311 39.1787 113.661 40.784 109.591 40.784C108.21 40.784 106.922 40.56 105.727 40.112C104.533 39.664 103.487 38.9733 102.591 38.04C101.695 37.1067 100.986 35.9493 100.463 34.568C99.9779 33.1493 99.7352 31.488 99.7352 29.584V12.224H106.791V28.128C106.791 30.1067 107.258 31.656 108.191 32.776C109.125 33.8587 110.525 34.4 112.391 34.4C114.519 34.4 116.069 33.728 117.039 32.384C118.047 31.0027 118.551 29.136 118.551 26.784V12.224ZM130.74 12.224H138.972V0.799997H146.028V12.224H156.052V18.944H146.028V31.6C146.028 32.72 146.532 33.28 147.54 33.28H155.044V40H143.284C142.015 40 140.97 39.5893 140.148 38.768C139.364 37.9467 138.972 36.9013 138.972 35.632V18.944H130.74V12.224Z" fill="white"/>
</svg>
